<mxfile host="app.diagrams.net" modified="2024-05-02T15:25:24.089Z" agent="Mozilla/5.0 (Windows NT 10.0; Win64; x64; rv:125.0) Gecko/20100101 Firefox/125.0" etag="AjlYRtzFrQNotWkOXQ2H" version="24.3.1" type="github">
  <diagram name="Page-1" id="XZk4y257_CPvYdPWEkeV">
    <mxGraphModel dx="724" dy="417" grid="1" gridSize="10" guides="1" tooltips="1" connect="1" arrows="1" fold="1" page="1" pageScale="1" pageWidth="850" pageHeight="1100" math="0" shadow="0">
      <root>
        <mxCell id="0" />
        <mxCell id="1" parent="0" />
        <mxCell id="lrqvdLVCCD_kgyAXPWSx-1" value="&lt;font style=&quot;font-size: 14px;&quot;&gt;&lt;b&gt;PConT&lt;/b&gt;&lt;br&gt;&lt;/font&gt;" style="whiteSpace=wrap;html=1;aspect=fixed;" parent="1" vertex="1">
          <mxGeometry x="450" y="80" width="70" height="70" as="geometry" />
        </mxCell>
        <mxCell id="lrqvdLVCCD_kgyAXPWSx-3" value="" style="endArrow=classic;html=1;rounded=0;entryX=0.442;entryY=-0.026;entryDx=0;entryDy=0;entryPerimeter=0;" parent="1" target="lrqvdLVCCD_kgyAXPWSx-4" edge="1">
          <mxGeometry width="50" height="50" relative="1" as="geometry">
            <mxPoint x="480" y="170" as="sourcePoint" />
            <mxPoint x="404.71" y="230" as="targetPoint" />
            <Array as="points">
              <mxPoint x="400" y="170" />
            </Array>
          </mxGeometry>
        </mxCell>
        <mxCell id="lrqvdLVCCD_kgyAXPWSx-4" value="&lt;div&gt;Script&lt;/div&gt;&lt;div&gt;[bash+python]&lt;br&gt;&lt;/div&gt;" style="whiteSpace=wrap;html=1;aspect=fixed;" parent="1" vertex="1">
          <mxGeometry x="370" y="200" width="70" height="70" as="geometry" />
        </mxCell>
        <mxCell id="lrqvdLVCCD_kgyAXPWSx-6" value="" style="endArrow=classic;html=1;rounded=0;exitX=0.411;exitY=1.058;exitDx=0;exitDy=0;exitPerimeter=0;" parent="1" source="lrqvdLVCCD_kgyAXPWSx-1" edge="1">
          <mxGeometry width="50" height="50" relative="1" as="geometry">
            <mxPoint x="405" y="160" as="sourcePoint" />
            <mxPoint x="560" y="200" as="targetPoint" />
            <Array as="points">
              <mxPoint x="479" y="170" />
              <mxPoint x="560" y="170" />
            </Array>
          </mxGeometry>
        </mxCell>
        <mxCell id="lrqvdLVCCD_kgyAXPWSx-7" value="&lt;div&gt;web app&lt;/div&gt;&lt;div&gt;&lt;br&gt;&lt;/div&gt;" style="whiteSpace=wrap;html=1;aspect=fixed;" parent="1" vertex="1">
          <mxGeometry x="520" y="200" width="70" height="70" as="geometry" />
        </mxCell>
        <mxCell id="lrqvdLVCCD_kgyAXPWSx-8" value="" style="endArrow=classic;html=1;rounded=0;entryX=0.563;entryY=-0.02;entryDx=0;entryDy=0;entryPerimeter=0;exitX=0.563;exitY=1;exitDx=0;exitDy=0;exitPerimeter=0;" parent="1" source="lrqvdLVCCD_kgyAXPWSx-7" target="lrqvdLVCCD_kgyAXPWSx-9" edge="1">
          <mxGeometry width="50" height="50" relative="1" as="geometry">
            <mxPoint x="559" y="280" as="sourcePoint" />
            <mxPoint x="560" y="358.88" as="targetPoint" />
            <Array as="points">
              <mxPoint x="560" y="338.88" />
            </Array>
          </mxGeometry>
        </mxCell>
        <mxCell id="lrqvdLVCCD_kgyAXPWSx-9" value="&lt;div&gt;frontend&lt;/div&gt;&lt;div&gt;[html,css,js]&lt;br&gt;&lt;/div&gt;" style="whiteSpace=wrap;html=1;aspect=fixed;" parent="1" vertex="1">
          <mxGeometry x="520" y="358.88" width="70" height="70" as="geometry" />
        </mxCell>
        <mxCell id="lrqvdLVCCD_kgyAXPWSx-13" value="" style="endArrow=classic;html=1;rounded=0;entryX=0.563;entryY=-0.02;entryDx=0;entryDy=0;entryPerimeter=0;" parent="1" target="lrqvdLVCCD_kgyAXPWSx-14" edge="1">
          <mxGeometry width="50" height="50" relative="1" as="geometry">
            <mxPoint x="560" y="318.88" as="sourcePoint" />
            <mxPoint x="410" y="358.88" as="targetPoint" />
            <Array as="points">
              <mxPoint x="410" y="318.88" />
              <mxPoint x="410" y="338.88" />
            </Array>
          </mxGeometry>
        </mxCell>
        <mxCell id="lrqvdLVCCD_kgyAXPWSx-14" value="&lt;div&gt;&lt;br&gt;&lt;/div&gt;&lt;div&gt;Client Auth&lt;br&gt;&lt;br&gt;&lt;/div&gt;" style="whiteSpace=wrap;html=1;aspect=fixed;" parent="1" vertex="1">
          <mxGeometry x="370" y="358.88" width="70" height="70" as="geometry" />
        </mxCell>
        <mxCell id="lrqvdLVCCD_kgyAXPWSx-15" value="" style="endArrow=classic;startArrow=classic;html=1;rounded=0;entryX=1;entryY=0.5;entryDx=0;entryDy=0;exitX=0;exitY=0.357;exitDx=0;exitDy=0;exitPerimeter=0;" parent="1" target="lrqvdLVCCD_kgyAXPWSx-14" edge="1">
          <mxGeometry width="50" height="50" relative="1" as="geometry">
            <mxPoint x="520" y="393.87" as="sourcePoint" />
            <mxPoint x="260" y="388.88" as="targetPoint" />
          </mxGeometry>
        </mxCell>
        <mxCell id="lrqvdLVCCD_kgyAXPWSx-19" value="" style="endArrow=classic;startArrow=classic;html=1;rounded=0;entryX=0;entryY=0.5;entryDx=0;entryDy=0;exitX=0;exitY=0.587;exitDx=0;exitDy=0;exitPerimeter=0;" parent="1" source="lrqvdLVCCD_kgyAXPWSx-14" target="lrqvdLVCCD_kgyAXPWSx-4" edge="1">
          <mxGeometry width="50" height="50" relative="1" as="geometry">
            <mxPoint x="240" y="230" as="sourcePoint" />
            <mxPoint x="580" y="320" as="targetPoint" />
            <Array as="points">
              <mxPoint x="270" y="400" />
              <mxPoint x="270" y="320" />
              <mxPoint x="270" y="235" />
            </Array>
          </mxGeometry>
        </mxCell>
        <mxCell id="lrqvdLVCCD_kgyAXPWSx-21" value="" style="endArrow=classic;html=1;rounded=0;exitX=0.5;exitY=1;exitDx=0;exitDy=0;" parent="1" source="l6isEbVxny_hH4SEJy2Z-2" edge="1">
          <mxGeometry width="50" height="50" relative="1" as="geometry">
            <mxPoint x="404.29999999999995" y="560.0000000000002" as="sourcePoint" />
            <mxPoint x="404" y="645.31" as="targetPoint" />
          </mxGeometry>
        </mxCell>
        <mxCell id="lrqvdLVCCD_kgyAXPWSx-22" value="backend" style="whiteSpace=wrap;html=1;aspect=fixed;" parent="1" vertex="1">
          <mxGeometry x="370" y="645.31" width="70" height="70" as="geometry" />
        </mxCell>
        <mxCell id="l6isEbVxny_hH4SEJy2Z-1" value="backend" style="whiteSpace=wrap;html=1;aspect=fixed;" vertex="1" parent="1">
          <mxGeometry x="300" y="479.99999999999994" width="70" height="70" as="geometry" />
        </mxCell>
        <mxCell id="l6isEbVxny_hH4SEJy2Z-2" value="&lt;div&gt;Hash and pass&lt;br&gt;[hash.lib]&lt;br&gt;&lt;/div&gt;" style="whiteSpace=wrap;html=1;aspect=fixed;" vertex="1" parent="1">
          <mxGeometry x="300" y="480" width="90" height="90" as="geometry" />
        </mxCell>
        <mxCell id="l6isEbVxny_hH4SEJy2Z-3" value="backend" style="whiteSpace=wrap;html=1;aspect=fixed;" vertex="1" parent="1">
          <mxGeometry x="370" y="645.31" width="70" height="70" as="geometry" />
        </mxCell>
        <mxCell id="l6isEbVxny_hH4SEJy2Z-4" value="&lt;div&gt;token based &lt;br&gt;&lt;/div&gt;&lt;div&gt;Auth&lt;br&gt;-JSON web token&lt;/div&gt;&lt;div&gt;-pyjwt&lt;br&gt;&lt;/div&gt;" style="whiteSpace=wrap;html=1;aspect=fixed;" vertex="1" parent="1">
          <mxGeometry x="440" y="480" width="100" height="100" as="geometry" />
        </mxCell>
        <mxCell id="l6isEbVxny_hH4SEJy2Z-6" value="" style="endArrow=classic;html=1;rounded=0;exitX=0.421;exitY=1.048;exitDx=0;exitDy=0;exitPerimeter=0;entryX=0.5;entryY=0;entryDx=0;entryDy=0;" edge="1" parent="1" source="l6isEbVxny_hH4SEJy2Z-4" target="l6isEbVxny_hH4SEJy2Z-3">
          <mxGeometry width="50" height="50" relative="1" as="geometry">
            <mxPoint x="470" y="560" as="sourcePoint" />
            <mxPoint x="400" y="640" as="targetPoint" />
          </mxGeometry>
        </mxCell>
        <mxCell id="l6isEbVxny_hH4SEJy2Z-8" value="" style="endArrow=classic;startArrow=classic;html=1;rounded=0;exitX=0.5;exitY=0;exitDx=0;exitDy=0;" edge="1" parent="1" source="l6isEbVxny_hH4SEJy2Z-4">
          <mxGeometry width="50" height="50" relative="1" as="geometry">
            <mxPoint x="530" y="600" as="sourcePoint" />
            <mxPoint x="400" y="430" as="targetPoint" />
          </mxGeometry>
        </mxCell>
        <mxCell id="l6isEbVxny_hH4SEJy2Z-9" value="" style="endArrow=classic;startArrow=classic;html=1;rounded=0;exitX=0.445;exitY=0.003;exitDx=0;exitDy=0;exitPerimeter=0;" edge="1" parent="1" source="l6isEbVxny_hH4SEJy2Z-2">
          <mxGeometry width="50" height="50" relative="1" as="geometry">
            <mxPoint x="350" y="478.88" as="sourcePoint" />
            <mxPoint x="400" y="428.88" as="targetPoint" />
          </mxGeometry>
        </mxCell>
        <mxCell id="l6isEbVxny_hH4SEJy2Z-10" value="" style="endArrow=classic;html=1;rounded=0;exitX=1;exitY=0.5;exitDx=0;exitDy=0;entryX=-0.024;entryY=0.577;entryDx=0;entryDy=0;entryPerimeter=0;" edge="1" parent="1" source="lrqvdLVCCD_kgyAXPWSx-1" target="l6isEbVxny_hH4SEJy2Z-11">
          <mxGeometry width="50" height="50" relative="1" as="geometry">
            <mxPoint x="530" y="300" as="sourcePoint" />
            <mxPoint x="690" y="120" as="targetPoint" />
          </mxGeometry>
        </mxCell>
        <mxCell id="l6isEbVxny_hH4SEJy2Z-11" value="&lt;div&gt;V0.1&lt;/div&gt;&lt;div&gt;for debian-distros&lt;br&gt;&lt;/div&gt;" style="whiteSpace=wrap;html=1;aspect=fixed;" vertex="1" parent="1">
          <mxGeometry x="650" y="80" width="65" height="65" as="geometry" />
        </mxCell>
        <mxCell id="l6isEbVxny_hH4SEJy2Z-12" style="edgeStyle=orthogonalEdgeStyle;rounded=0;orthogonalLoop=1;jettySize=auto;html=1;exitX=1;exitY=1;exitDx=0;exitDy=0;entryX=1.079;entryY=1.044;entryDx=0;entryDy=0;entryPerimeter=0;" edge="1" parent="1" source="l6isEbVxny_hH4SEJy2Z-11" target="l6isEbVxny_hH4SEJy2Z-11">
          <mxGeometry relative="1" as="geometry" />
        </mxCell>
        <mxCell id="l6isEbVxny_hH4SEJy2Z-14" value="" style="endArrow=classic;startArrow=classic;html=1;rounded=0;entryX=-0.057;entryY=0.595;entryDx=0;entryDy=0;entryPerimeter=0;" edge="1" parent="1" target="l6isEbVxny_hH4SEJy2Z-15">
          <mxGeometry width="50" height="50" relative="1" as="geometry">
            <mxPoint x="400" y="720" as="sourcePoint" />
            <mxPoint x="600" y="800" as="targetPoint" />
            <Array as="points">
              <mxPoint x="400" y="800" />
            </Array>
          </mxGeometry>
        </mxCell>
        <mxCell id="l6isEbVxny_hH4SEJy2Z-15" value="Proxy Scrape&lt;br&gt;[flask/django*]" style="whiteSpace=wrap;html=1;aspect=fixed;" vertex="1" parent="1">
          <mxGeometry x="500" y="760" width="70" height="70" as="geometry" />
        </mxCell>
        <mxCell id="l6isEbVxny_hH4SEJy2Z-16" value="" style="endArrow=classic;html=1;rounded=0;exitX=1;exitY=0.5;exitDx=0;exitDy=0;" edge="1" parent="1" source="l6isEbVxny_hH4SEJy2Z-15">
          <mxGeometry width="50" height="50" relative="1" as="geometry">
            <mxPoint x="630" y="750" as="sourcePoint" />
            <mxPoint x="610" y="795" as="targetPoint" />
          </mxGeometry>
        </mxCell>
        <mxCell id="l6isEbVxny_hH4SEJy2Z-20" style="edgeStyle=orthogonalEdgeStyle;rounded=0;orthogonalLoop=1;jettySize=auto;html=1;entryX=1;entryY=0.5;entryDx=0;entryDy=0;" edge="1" parent="1" source="l6isEbVxny_hH4SEJy2Z-19" target="l6isEbVxny_hH4SEJy2Z-15">
          <mxGeometry relative="1" as="geometry" />
        </mxCell>
        <mxCell id="l6isEbVxny_hH4SEJy2Z-19" value="&lt;div&gt;selenium/&lt;/div&gt;&lt;div&gt;scrapy&lt;/div&gt;&lt;div&gt;pylibs for scraping&lt;br&gt;&lt;/div&gt;" style="whiteSpace=wrap;html=1;aspect=fixed;" vertex="1" parent="1">
          <mxGeometry x="610" y="760" width="70" height="70" as="geometry" />
        </mxCell>
      </root>
    </mxGraphModel>
  </diagram>
</mxfile>
